<?xml version="1.0" encoding="utf-8"?>
<!-- Generator: Adobe Illustrator 25.3.1, SVG Export Plug-In . SVG Version: 6.00 Build 0)  -->
<svg version="1.1"
	 id="Layer_1" xmlns:cc="http://creativecommons.org/ns#" xmlns:dc="http://purl.org/dc/elements/1.1/" xmlns:inkscape="http://www.inkscape.org/namespaces/inkscape" xmlns:rdf="http://www.w3.org/1999/02/22-rdf-syntax-ns#" xmlns:sodipodi="http://sodipodi.sourceforge.net/DTD/sodipodi-0.dtd" xmlns:svg="http://www.w3.org/2000/svg"
	 xmlns="http://www.w3.org/2000/svg" xmlns:xlink="http://www.w3.org/1999/xlink" x="0px" y="0px" viewBox="0 0 60.72 57.9"
	 style="enable-background:new 0 0 60.72 57.9;" xml:space="preserve">
<style type="text/css">
	.st0{fill-rule:evenodd;clip-rule:evenodd;fill:#99BBC7;}
</style>
<g transform="translate(50 50) scale(0.69 0.69) rotate(0) translate(-50 -50)">
	<g transform="translate(0,-952.36218)">
		<path class="st0" d="M21.45,929.9c-0.84,0.04-1.56,0.59-1.82,1.38l-9.42,29.19l-30.67-0.06c-1.1,0-2,0.89-2,2
			c0,0.64,0.31,1.25,0.83,1.62l24.85,17.98l-9.54,29.16c-0.34,1.05,0.23,2.18,1.28,2.52c0.61,0.2,1.28,0.09,1.8-0.29l24.78-18.08
			l24.79,18.08c0.89,0.65,2.14,0.45,2.79-0.44c0.38-0.52,0.48-1.19,0.28-1.8l-9.54-29.16l24.85-17.98c0.89-0.65,1.1-1.9,0.45-2.79
			c-0.38-0.52-0.98-0.83-1.62-0.83l-30.67,0.06l-9.43-29.2C23.16,930.43,22.34,929.86,21.45,929.9z"/>
	</g>
</g>
</svg>
